<svg xmlns="http://www.w3.org/2000/svg" xmlns:xlink="http://www.w3.org/1999/xlink"><symbol xmlns="http://www.w3.org/2000/svg" viewBox="0 0 477.867 477.867" id="apps"><path d="M119.467 0h-102.4C7.641 0 0 7.641 0 17.067v102.4c0 9.426 7.641 17.067 17.067 17.067h102.4c9.426 0 17.067-7.641 17.067-17.067v-102.4C136.533 7.641 128.892 0 119.467 0zm170.666 0h-102.4c-9.426 0-17.067 7.641-17.067 17.067v102.4c0 9.426 7.641 17.067 17.067 17.067h102.4c9.426 0 17.067-7.641 17.067-17.067v-102.4C307.2 7.641 299.559 0 290.133 0zM460.8 0H358.4c-9.426 0-17.067 7.641-17.067 17.067v102.4c0 9.426 7.641 17.067 17.067 17.067h102.4c9.426 0 17.067-7.641 17.067-17.067v-102.4C477.867 7.641 470.226 0 460.8 0zM119.467 170.667h-102.4C7.641 170.667 0 178.308 0 187.733v102.4c0 9.426 7.641 17.067 17.067 17.067h102.4c9.426 0 17.067-7.641 17.067-17.067v-102.4c-.001-9.425-7.642-17.066-17.067-17.066zm170.666 0h-102.4c-9.426 0-17.067 7.641-17.067 17.067v102.4c0 9.426 7.641 17.067 17.067 17.067h102.4c9.426 0 17.067-7.641 17.067-17.067v-102.4c0-9.426-7.641-17.067-17.067-17.067zm170.667 0H358.4c-9.426 0-17.067 7.641-17.067 17.067v102.4c0 9.426 7.641 17.067 17.067 17.067h102.4c9.426 0 17.067-7.641 17.067-17.067v-102.4c0-9.426-7.641-17.067-17.067-17.067zM119.467 341.333h-102.4C7.641 341.333 0 348.974 0 358.4v102.4c0 9.426 7.641 17.067 17.067 17.067h102.4c9.426 0 17.067-7.641 17.067-17.067V358.4c-.001-9.426-7.642-17.067-17.067-17.067zm170.666 0h-102.4c-9.426 0-17.067 7.641-17.067 17.067v102.4c0 9.426 7.641 17.067 17.067 17.067h102.4c9.426 0 17.067-7.641 17.067-17.067V358.4c0-9.426-7.641-17.067-17.067-17.067zm170.667 0H358.4c-9.426 0-17.067 7.641-17.067 17.067v102.4c0 9.426 7.641 17.067 17.067 17.067h102.4c9.426 0 17.067-7.641 17.067-17.067V358.4c0-9.426-7.641-17.067-17.067-17.067z"/></symbol><symbol xmlns="http://www.w3.org/2000/svg" viewBox="0 0 306 306" id="arrow-button"><path d="M94.35 0l-35.7 35.7L175.95 153 58.65 270.3l35.7 35.7 153-153z"/></symbol><symbol viewBox="0 0 24 24" id="basket"><path fill-rule="evenodd" clip-rule="evenodd" d="M1 2a1 1 0 000 2h1.681a1 1 0 01.92.606l4.84 11.296a3 3 0 003.346 1.76l7.271-1.454a3 3 0 002.258-1.993L23.07 8.95A3 3 0 0020.225 5H5.945L5.44 3.818A3 3 0 002.68 2H1zm9.28 13.114L6.802 7h13.423a1 1 0 01.949 1.316l-1.756 5.267a1 1 0 01-.752.664l-7.27 1.454a1 1 0 01-1.116-.587z"/><path d="M11 22a2 2 0 11-4 0 2 2 0 014 0zm10 0a2 2 0 11-4 0 2 2 0 014 0z"/></symbol><symbol viewBox="0 0 16 16" id="check"><path d="M8 0C3.6 0 0 3.6 0 8s3.6 8 8 8 8-3.6 8-8-3.6-8-8-8zm0 14c-3.3 0-6-2.7-6-6s2.7-6 6-6 6 2.7 6 6-2.7 6-6 6z"/><path d="M11.7 5.3c.4.4.4 1 0 1.4l-4 4c-.4.4-1 .4-1.4 0l-2-2c-.4-.4-.4-1 0-1.4.4-.4 1-.4 1.4 0L7 8.6l3.3-3.3c.4-.4 1-.4 1.4 0z"/></symbol><symbol xmlns="http://www.w3.org/2000/svg" viewBox="0 0 477.867 477.867" id="checklist"><path d="M119.467 0h-102.4C7.641 0 0 7.641 0 17.067v102.4c0 9.426 7.641 17.067 17.067 17.067h102.4c9.426 0 17.067-7.641 17.067-17.067v-102.4C136.533 7.641 128.892 0 119.467 0zm0 170.667h-102.4C7.641 170.667 0 178.308 0 187.733v102.4c0 9.426 7.641 17.067 17.067 17.067h102.4c9.426 0 17.067-7.641 17.067-17.067v-102.4c-.001-9.425-7.642-17.066-17.067-17.066zm0 170.666h-102.4C7.641 341.333 0 348.974 0 358.4v102.4c0 9.426 7.641 17.067 17.067 17.067h102.4c9.426 0 17.067-7.641 17.067-17.067V358.4c-.001-9.426-7.642-17.067-17.067-17.067zM460.8 51.2H187.733c-9.426 0-17.067 7.641-17.067 17.067s7.641 17.067 17.067 17.067H460.8c9.426 0 17.067-7.641 17.067-17.067S470.226 51.2 460.8 51.2zm0 170.667H187.733c-9.426 0-17.067 7.641-17.067 17.067S178.308 256 187.733 256H460.8c9.426 0 17.067-7.641 17.067-17.067s-7.641-17.066-17.067-17.066zm0 170.666H187.733c-9.426 0-17.067 7.641-17.067 17.067s7.641 17.067 17.067 17.067H460.8c9.426 0 17.067-7.641 17.067-17.067s-7.641-17.067-17.067-17.067z"/></symbol><symbol xmlns="http://www.w3.org/2000/svg" viewBox="-40 0 427 427.001" id="delete"><path d="M232.398 154.703c-5.523 0-10 4.477-10 10v189c0 5.52 4.477 10 10 10 5.524 0 10-4.48 10-10v-189c0-5.523-4.476-10-10-10zm-118 0c-5.523 0-10 4.477-10 10v189c0 5.52 4.477 10 10 10 5.524 0 10-4.48 10-10v-189c0-5.523-4.476-10-10-10zm0 0"/><path d="M28.398 127.121V373.5c0 14.563 5.34 28.238 14.668 38.05A49.246 49.246 0 0078.796 427H268a49.233 49.233 0 0035.73-15.45c9.329-9.812 14.668-23.487 14.668-38.05V127.121c18.543-4.922 30.559-22.836 28.079-41.863-2.485-19.024-18.692-33.254-37.88-33.258h-51.199V39.5a39.289 39.289 0 00-11.539-28.031A39.288 39.288 0 00217.797 0H129a39.288 39.288 0 00-28.063 11.469A39.289 39.289 0 0089.398 39.5V52H38.2C19.012 52.004 2.805 66.234.32 85.258c-2.48 19.027 9.535 36.941 28.078 41.863zM268 407H78.797c-17.098 0-30.399-14.688-30.399-33.5V128h250v245.5c0 18.813-13.3 33.5-30.398 33.5zM109.398 39.5a19.25 19.25 0 015.676-13.895A19.26 19.26 0 01129 20h88.797a19.26 19.26 0 0113.926 5.605 19.244 19.244 0 015.675 13.895V52h-128zM38.2 72h270.399c9.941 0 18 8.059 18 18s-8.059 18-18 18h-270.4c-9.941 0-18-8.059-18-18s8.059-18 18-18zm0 0"/><path d="M173.398 154.703c-5.523 0-10 4.477-10 10v189c0 5.52 4.477 10 10 10 5.524 0 10-4.48 10-10v-189c0-5.523-4.476-10-10-10zm0 0"/></symbol><symbol xmlns="http://www.w3.org/2000/svg" viewBox="0 0 511 511.9" id="instagram"><path d="M510.95 150.5c-1.2-27.2-5.598-45.898-11.9-62.102-6.5-17.199-16.5-32.597-29.6-45.398-12.802-13-28.302-23.102-45.302-29.5-16.296-6.3-34.898-10.7-62.097-11.898C334.648.3 325.949 0 256.449 0s-78.199.3-105.5 1.5c-27.199 1.2-45.898 5.602-62.097 11.898-17.204 6.5-32.602 16.5-45.403 29.602-13 12.8-23.097 28.3-29.5 45.3-6.3 16.302-10.699 34.9-11.898 62.098C.75 177.801.449 186.5.449 256s.301 78.2 1.5 105.5c1.2 27.2 5.602 45.898 11.903 62.102 6.5 17.199 16.597 32.597 29.597 45.398 12.801 13 28.301 23.102 45.301 29.5 16.3 6.3 34.898 10.7 62.102 11.898 27.296 1.204 36 1.5 105.5 1.5s78.199-.296 105.5-1.5c27.199-1.199 45.898-5.597 62.097-11.898a130.934 130.934 0 0074.903-74.898c6.296-16.301 10.699-34.903 11.898-62.102 1.2-27.3 1.5-36 1.5-105.5s-.102-78.2-1.3-105.5zm-46.098 209c-1.102 25-5.301 38.5-8.801 47.5-8.602 22.3-26.301 40-48.602 48.602-9 3.5-22.597 7.699-47.5 8.796-27 1.204-35.097 1.5-103.398 1.5s-76.5-.296-103.403-1.5c-25-1.097-38.5-5.296-47.5-8.796C94.551 451.5 84.45 445 76.25 436.5c-8.5-8.3-15-18.3-19.102-29.398-3.5-9-7.699-22.602-8.796-47.5-1.204-27-1.5-35.102-1.5-103.403s.296-76.5 1.5-103.398c1.097-25 5.296-38.5 8.796-47.5C61.25 94.199 67.75 84.1 76.352 75.898c8.296-8.5 18.296-15 29.398-19.097 9-3.5 22.602-7.7 47.5-8.801 27-1.2 35.102-1.5 103.398-1.5 68.403 0 76.5.3 103.403 1.5 25 1.102 38.5 5.3 47.5 8.8 11.097 4.098 21.199 10.598 29.398 19.098 8.5 8.301 15 18.301 19.102 29.403 3.5 9 7.699 22.597 8.8 47.5 1.2 27 1.5 35.097 1.5 103.398s-.3 76.301-1.5 103.301zm0 0"/><path d="M256.45 124.5c-72.598 0-131.5 58.898-131.5 131.5s58.902 131.5 131.5 131.5c72.6 0 131.5-58.898 131.5-131.5s-58.9-131.5-131.5-131.5zm0 216.8c-47.098 0-85.302-38.198-85.302-85.3s38.204-85.3 85.301-85.3c47.102 0 85.301 38.198 85.301 85.3s-38.2 85.3-85.3 85.3zm167.402-222c0 16.954-13.747 30.7-30.704 30.7-16.953 0-30.699-13.746-30.699-30.7 0-16.956 13.746-30.698 30.7-30.698 16.956 0 30.703 13.742 30.703 30.699zm0 0"/></symbol><symbol xmlns="http://www.w3.org/2000/svg" viewBox="0 0 512 512" id="loupe"><path d="M225.474 0C101.151 0 0 101.151 0 225.474c0 124.33 101.151 225.474 225.474 225.474 124.33 0 225.474-101.144 225.474-225.474C450.948 101.151 349.804 0 225.474 0zm0 409.323c-101.373 0-183.848-82.475-183.848-183.848S124.101 41.626 225.474 41.626s183.848 82.475 183.848 183.848-82.475 183.849-183.848 183.849z"/><path d="M505.902 476.472L386.574 357.144c-8.131-8.131-21.299-8.131-29.43 0-8.131 8.124-8.131 21.306 0 29.43l119.328 119.328A20.74 20.74 0 00491.187 512a20.754 20.754 0 0014.715-6.098c8.131-8.124 8.131-21.306 0-29.43z"/></symbol><symbol xmlns="http://www.w3.org/2000/svg" viewBox="0 0 513.64 513.64" id="phone-call"><path d="M499.66 376.96l-71.68-71.68c-25.6-25.6-69.12-15.359-79.36 17.92-7.68 23.041-33.28 35.841-56.32 30.72-51.2-12.8-120.32-79.36-133.12-133.12-7.68-23.041 7.68-48.641 30.72-56.32 33.28-10.24 43.52-53.76 17.92-79.36l-71.68-71.68c-20.48-17.92-51.2-17.92-69.12 0L18.38 62.08c-48.64 51.2 5.12 186.88 125.44 307.2s256 176.641 307.2 125.44l48.64-48.64c17.921-20.48 17.921-51.2 0-69.12z"/></symbol><symbol xmlns="http://www.w3.org/2000/svg" viewBox="0 0 512 512" id="soup"><linearGradient id="ja" gradientUnits="userSpaceOnUse" x1="283.845" x2="283.845" y1="436.774" y2="245.947"><stop offset=".322" stop-color="#a163f5"/><stop offset=".466" stop-color="#b074ee"/><stop offset=".752" stop-color="#d8a1dd"/><stop offset=".898" stop-color="#efbad3"/></linearGradient><path d="M204.126 226.908q1.319.056 2.627.055c15.463 0 29.826-5.752 39.731-15.993 10.922-11.291 16.048-25.908 21.006-40.043 1.95-5.561 3.967-11.311 6.282-16.632a4.8 4.8 0 00.108-.245c14.565-33.258 42.9-56.179 72.9-80.443 20.26-16.387 41.209-33.332 57.691-53.85a6 6 0 10-9.356-7.514C379.44 31.756 359 48.289 339.234 64.277 309.7 88.168 279.166 112.862 263.3 148.3c-38.7 37.774-95.984 49.387-96.559 49.5a6 6 0 00-3.5 9.684c9.53 11.653 24.429 18.734 40.885 19.424zM254.6 171.39c-4.218 11.846-8.653 22.872-16.745 31.237s-20.209 12.83-33.231 12.291a45.858 45.858 0 01-24.554-8.041c16.037-4.44 46.788-14.903 74.53-35.487zM90.662 339.786a6 6 0 00-2.188 8.2 195 195 0 0059.87 63.92 6 6 0 006.683-9.966 182.969 182.969 0 01-56.167-59.965 6 6 0 00-8.198-2.189zM90.756 326.238a180.575 180.575 0 01-4.068-9.686 6 6 0 00-11.194 4.325c1.34 3.47 2.8 6.944 4.338 10.327a6 6 0 1010.924-4.966z"/><path d="M465.494 245.1H46.506a6 6 0 00-6 6 215.262 215.262 0 0089.783 175.038v58.835A17.045 17.045 0 00147.314 502h217.372a17.045 17.045 0 0017.025-17.026v-58.826A215.321 215.321 0 00471.494 251.1a6 6 0 00-6-6zm-95.783 239.874a5.031 5.031 0 01-5.025 5.026H147.314a5.031 5.031 0 01-5.025-5.026v-50.8a215.65 215.65 0 00227.422.01zm86.027-194.982H157a6 6 0 000 12h296.028a203.488 203.488 0 01-394.058 0H117a6 6 0 000-12H56.261a203.672 203.672 0 01-3.667-32.892h406.812a203.673 203.673 0 01-3.668 32.892z"/></symbol><symbol xmlns="http://www.w3.org/2000/svg" viewBox="0 0 24 24" id="telegram"><path d="M9.417 15.181l-.397 5.584c.568 0 .814-.244 1.109-.537l2.663-2.545 5.518 4.041c1.012.564 1.725.267 1.998-.931L23.93 3.821l.001-.001c.321-1.496-.541-2.081-1.527-1.714l-21.29 8.151c-1.453.564-1.431 1.374-.247 1.741l5.443 1.693L18.953 5.78c.595-.394 1.136-.176.691.218z"/></symbol><symbol xmlns="http://www.w3.org/2000/svg" viewBox="0 0 284.929 284.929" id="up-arrow"><path d="M282.082 195.285L149.028 62.24c-1.901-1.903-4.088-2.856-6.562-2.856s-4.665.953-6.567 2.856L2.856 195.285C.95 197.191 0 199.378 0 201.853c0 2.474.953 4.664 2.856 6.566l14.272 14.271c1.903 1.903 4.093 2.854 6.567 2.854s4.664-.951 6.567-2.854l112.204-112.202 112.208 112.209c1.902 1.903 4.093 2.848 6.563 2.848 2.478 0 4.668-.951 6.57-2.848l14.274-14.277c1.902-1.902 2.847-4.093 2.847-6.566.001-2.476-.944-4.666-2.846-6.569z"/></symbol><symbol xmlns="http://www.w3.org/2000/svg" viewBox="0 0 24 24" id="viber"><path d="M23.155 13.893c.716-6.027-.344-9.832-2.256-11.553l.001-.001C17.814-.6 7.392-1.035 3.7 2.471 2.042 4.186 1.458 6.703 1.394 9.819c-.064 3.117-.14 8.956 5.301 10.54H6.7l-.005 2.419s-.037.98.589 1.177c.716.232 1.04-.223 3.267-2.883 3.724.323 6.584-.417 6.909-.525.752-.252 5.007-.815 5.695-6.654zM10.918 19.37s-2.357 2.939-3.09 3.702c-.24.248-.503.225-.499-.267 0-.323.018-4.016.018-4.016-4.613-1.322-4.341-6.294-4.291-8.895.05-2.602.526-4.733 1.93-6.168C8.225.689 17.362 1.368 19.69 3.556c2.846 2.523 1.833 9.651 1.839 9.894-.585 4.874-4.033 5.183-4.667 5.394-.271.09-2.786.737-5.944.526z"/><path d="M12.222 4.297c-.385 0-.385.6 0 .605 2.987.023 5.447 2.105 5.474 5.924 0 .403.59.398.585-.005h-.001c-.032-4.115-2.718-6.501-6.058-6.524z"/><path d="M16.151 10.193c-.009.398.58.417.585.014.049-2.269-1.35-4.138-3.979-4.335-.385-.028-.425.577-.041.605 2.28.173 3.481 1.729 3.435 3.716zm-.63 2.581c-.494-.286-.997-.108-1.205.173l-.435.563c-.221.286-.634.248-.634.248-3.014-.797-3.82-3.951-3.82-3.951s-.037-.427.239-.656l.544-.45c.272-.216.444-.736.167-1.247-.74-1.337-1.237-1.798-1.49-2.152-.266-.333-.666-.408-1.082-.183h-.009c-.865.506-1.812 1.453-1.509 2.428.517 1.028 1.467 4.305 4.495 6.781 1.423 1.171 3.675 2.371 4.631 2.648l.009.014c.942.314 1.858-.67 2.347-1.561v-.007c.217-.431.145-.839-.172-1.106-.562-.548-1.41-1.153-2.076-1.542z"/><path d="M13.169 8.104c.961.056 1.427.558 1.477 1.589.018.403.603.375.585-.028-.064-1.346-.766-2.096-2.03-2.166-.385-.023-.421.582-.032.605z"/></symbol><symbol id="info" viewBox="0 0 1920 1920" xmlns="http://www.w3.org/2000/svg"><path d="M960 0c530.193 0 960 429.807 960 960s-429.807 960-960 960S0 1490.193 0 960 429.807 0 960 0Zm223.797 707.147c-28.531-29.561-67.826-39.944-109.227-39.455-55.225.657-114.197 20.664-156.38 40.315-100.942 47.024-178.395 130.295-242.903 219.312-11.616 16.025-17.678 34.946 2.76 49.697 17.428 12.58 29.978 1.324 40.49-9.897l.69-.74c.801-.862 1.591-1.72 2.37-2.565 11.795-12.772 23.194-25.999 34.593-39.237l2.85-3.31 2.851-3.308c34.231-39.687 69.056-78.805 115.144-105.345 27.4-15.778 47.142 8.591 42.912 35.963-2.535 16.413-11.165 31.874-17.2 47.744-21.44 56.363-43.197 112.607-64.862 168.888-23.74 61.7-47.405 123.425-70.426 185.398l-2 5.38-1.998 5.375c-20.31 54.64-40.319 108.872-53.554 165.896-10.575 45.592-24.811 100.906-4.357 145.697 11.781 25.8 36.77 43.532 64.567 47.566 37.912 5.504 78.906 6.133 116.003-2.308 19.216-4.368 38.12-10.07 56.57-17.005 56.646-21.298 108.226-54.146 154.681-92.755 47.26-39.384 88.919-85.972 126.906-134.292 12.21-15.53 27.004-32.703 31.163-52.596 3.908-18.657-12.746-45.302-34.326-34.473-11.395 5.718-19.929 19.867-28.231 29.27-10.42 11.798-21.044 23.423-31.786 34.92-21.488 22.987-43.513 45.463-65.634 67.831-13.54 13.692-30.37 25.263-47.662 33.763-21.59 10.609-38.785-1.157-36.448-25.064 2.144-21.954 7.515-44.145 15.046-64.926 30.306-83.675 61.19-167.135 91.834-250.686 19.157-52.214 38.217-104.461 56.999-156.816 17.554-48.928 32.514-97.463 38.834-149.3 4.357-35.71-4.9-72.647-30.269-98.937Zm63.72-401.498c-91.342-35.538-200.232 25.112-218.574 121.757-13.25 69.784 13.336 131.23 67.998 157.155 105.765 50.16 232.284-29.954 232.29-147.084.005-64.997-28.612-111.165-81.715-131.828Z" fill-rule="evenodd"/></symbol></svg>